# xmcd CD database file
#
# Track frame offsets:
#	150
#	13945
#	35144
#	53722
#	71598
#	90174
#	99449
#	121316
#	135967
#	148291
#	163685
#	180350
#	203314
#	219041
#
# Disc length: 3112 seconds
#
# Revision: 0
# Processed by: cddbd v1.5.2PL0 Copyright (c) Steve Scherf et al.
# Submitted via: CDex 1.70beta2
#
DISCID=b30c260e
DTITLE=Ralph Bassinger - Waiting For My Train
DYEAR=2007
DGENRE=Blues
TTITLE0=Tribute To Otis
TTITLE1=Maybe On Another Day
TTITLE2=Waiting For My Train
TTITLE3=Red Knows
TTITLE4=That's Alright
TTITLE5=Thinking Of Elmore
TTITLE6=Learning To Love The Blues
TTITLE7=Salina Shuffle
TTITLE8=Mississippi Mind
TTITLE9=Reconsider Baby
TTITLE10=Circle Boogie
TTITLE11=Taking Jimmy Home
TTITLE12=Barrel Bt The Door
TTITLE13=Angela Marie
EXTD=YEAR: 2007
EXTT0=
EXTT1=
EXTT2=
EXTT3=
EXTT4=
EXTT5=
EXTT6=
EXTT7=
EXTT8=
EXTT9=
EXTT10=
EXTT11=
EXTT12=
EXTT13=
PLAYORDER=
